<svg width="15" height="21" viewBox="0 0 15 21" fill="none" xmlns="http://www.w3.org/2000/svg">
<path fill-rule="evenodd" clip-rule="evenodd" d="M0.208008 7.37516C0.208008 3.34391 3.46842 0.0834961 7.49967 0.0834961C11.5309 0.0834961 14.7913 3.34391 14.7913 7.37516C14.7913 11.7189 10.1872 17.7085 8.30176 19.9897C7.88509 20.4897 7.12467 20.4897 6.70801 19.9897C4.81217 17.7085 0.208008 11.7189 0.208008 7.37516ZM4.89551 7.37516C4.89551 8.81266 6.06217 9.97933 7.49967 9.97933C8.93717 9.97933 10.1038 8.81266 10.1038 7.37516C10.1038 5.93766 8.93717 4.771 7.49967 4.771C6.06217 4.771 4.89551 5.93766 4.89551 7.37516Z" fill="white"/>
</svg>
