<svg width="40" height="40" viewBox="0 0 40 40" fill="none" xmlns="http://www.w3.org/2000/svg">
<path fill-rule="evenodd" clip-rule="evenodd" d="M20 5C15.9262 5 15.4154 5.01727 13.8155 5.09027C12.2189 5.16309 11.1285 5.41668 10.1744 5.78751C9.18805 6.17079 8.35153 6.68369 7.51758 7.51758C6.68369 8.35153 6.17079 9.18805 5.78751 10.1744C5.41668 11.1285 5.16309 12.2189 5.09027 13.8155C5.01727 15.4154 5 15.9262 5 20C5 24.0738 5.01727 24.5846 5.09027 26.1845C5.16309 27.7811 5.41668 28.8715 5.78751 29.8256C6.17079 30.812 6.68369 31.6485 7.51758 32.4824C8.35153 33.3163 9.18805 33.8292 10.1744 34.2125C11.1285 34.5833 12.2189 34.8369 13.8155 34.9097C15.4154 34.9827 15.9262 35 20 35C24.0738 35 24.5846 34.9827 26.1845 34.9097C27.7811 34.8369 28.8715 34.5833 29.8256 34.2125C30.812 33.8292 31.6485 33.3163 32.4824 32.4824C33.3163 31.6485 33.8292 30.812 34.2125 29.8256C34.5833 28.8715 34.8369 27.7811 34.9097 26.1845C34.9827 24.5846 35 24.0738 35 20C35 15.9262 34.9827 15.4154 34.9097 13.8155C34.8369 12.2189 34.5833 11.1285 34.2125 10.1744C33.8292 9.18805 33.3163 8.35153 32.4824 7.51758C31.6485 6.68369 30.812 6.17079 29.8256 5.78751C28.8715 5.41668 27.7811 5.16309 26.1845 5.09027C24.5846 5.01727 24.0738 5 20 5ZM20 7.70264C24.0051 7.70264 24.4795 7.71794 26.0612 7.7901C27.5237 7.85679 28.318 8.10115 28.8465 8.30658C29.5467 8.57869 30.0464 8.90373 30.5712 9.42866C31.0961 9.95353 31.4212 10.4532 31.6933 11.1534C31.8987 11.6819 32.1431 12.4762 32.2098 13.9387C32.2819 15.5203 32.2972 15.9948 32.2972 20C32.2972 24.0051 32.2819 24.4795 32.2098 26.0612C32.1431 27.5237 31.8987 28.318 31.6933 28.8465C31.4212 29.5467 31.0961 30.0464 30.5712 30.5712C30.0464 31.0961 29.5467 31.4212 28.8465 31.6933C28.318 31.8987 27.5237 32.1431 26.0612 32.2098C24.4798 32.2819 24.0054 32.2972 20 32.2972C15.9945 32.2972 15.5202 32.2819 13.9387 32.2098C12.4762 32.1431 11.6819 31.8987 11.1534 31.6933C10.4532 31.4212 9.95353 31.0961 9.42866 30.5712C8.90379 30.0464 8.57869 29.5467 8.30658 28.8465C8.10115 28.318 7.85679 27.5237 7.7901 26.0612C7.71794 24.4795 7.70264 24.0051 7.70264 20C7.70264 15.9948 7.71794 15.5203 7.7901 13.9387C7.85679 12.4762 8.10115 11.6819 8.30658 11.1534C8.57869 10.4532 8.90373 9.95353 9.42866 9.42866C9.95353 8.90373 10.4532 8.57869 11.1534 8.30658C11.6819 8.10115 12.4762 7.85679 13.9387 7.7901C15.5203 7.71794 15.9948 7.70264 20 7.70264ZM12.2974 20.0001C12.2974 15.746 15.746 12.2974 20.0001 12.2974C24.2542 12.2974 27.7028 15.746 27.7028 20.0001C27.7028 24.2542 24.2542 27.7028 20.0001 27.7028C15.746 27.7028 12.2974 24.2542 12.2974 20.0001ZM20 25C17.2386 25 15 22.7614 15 20C15 17.2386 17.2386 15 20 15C22.7614 15 25 17.2386 25 20C25 22.7614 22.7614 25 20 25ZM28.0072 13.7929C29.0014 13.7929 29.8073 12.987 29.8073 11.9929C29.8073 10.9988 29.0014 10.1929 28.0072 10.1929C27.0132 10.1929 26.2073 10.9988 26.2073 11.9929C26.2073 12.987 27.0132 13.7929 28.0072 13.7929Z" fill="#DADFE2"/>
</svg>
