<svg width="25" height="21" viewBox="0 0 25 21" fill="none" xmlns="http://www.w3.org/2000/svg">
<path d="M12.5004 9.0875L24.3254 2.15C23.985 1.64632 23.5272 1.23295 22.9915 0.945513C22.4558 0.658073 21.8583 0.505178 21.2504 0.5H3.75039C3.13936 0.499733 2.53753 0.64878 1.99725 0.934171C1.45696 1.21956 0.994602 1.63265 0.650391 2.1375L12.5004 9.0875Z" fill="#E3701E"/>
<path d="M13.75 11.2376C13.3702 11.4579 12.9391 11.5743 12.5 11.5751C12.0621 11.5781 11.631 11.466 11.25 11.2501L0 4.6626V16.7501C0 17.7447 0.395088 18.6985 1.09835 19.4017C1.80161 20.105 2.75544 20.5001 3.75 20.5001H21.25C22.2446 20.5001 23.1984 20.105 23.9016 19.4017C24.6049 18.6985 25 17.7447 25 16.7501V4.6626L13.75 11.2376Z" fill="#E3701E"/>
</svg>
